<svg id="Layer_1" data-name="Layer 1" xmlns="http://www.w3.org/2000/svg" viewBox="0 0 192 192"><title>avatars-dogs-smile-teeth-goofy</title><path d="M101.9469,18.4622a11.7591,11.7591,0,0,0-11.8938,0,208.815,208.815,0,0,0-71.591,71.591,11.7591,11.7591,0,0,0,0,11.8938,202.3077,202.3077,0,0,0,31.3908,40.2,202.3077,202.3077,0,0,0,40.2,31.3908,11.7591,11.7591,0,0,0,11.8938,0,202.3092,202.3092,0,0,0,40.2-31.3909,202.3092,202.3092,0,0,0,31.3909-40.2,11.7591,11.7591,0,0,0,0-11.8938,202.3077,202.3077,0,0,0-31.3908-40.2A202.3077,202.3077,0,0,0,101.9469,18.4622Z" style="fill:#9ddae5"/><path d="M159.9706,59.49q-.094-.0779-.1906-.1523L136.565,41.29a5.6831,5.6831,0,0,0-7.5068.4682l-3.8168,3.8168H66.28L42.0158,21.3281a7.3636,7.3636,0,0,0-12.5882,5.26V58.1459a7.3821,7.3821,0,0,0,1.2448,4.085L41.9807,79.2021a7.3639,7.3639,0,0,0,6.1363,3.2786h10.8v7.3635c-.0069,8.6464,5.5818,13.2434,7.1848,14.8464l59.2408-.045.0742-.0743a19.7366,19.7366,0,0,0,7.1466-13.9793,4.9133,4.9133,0,0,0,8.6922,3.0021l19.6991-23.7367A7.3635,7.3635,0,0,0,159.9706,59.49Z" style="fill:#86858d"/><circle cx="77.2557" cy="75.9383" r="9.6953" style="fill:#b5b6c1"/><path d="M51.0709,45.2331,29.3575,23.52V60.3549L44.1022,82.4631h14.727v-18.5A26.4882,26.4882,0,0,0,51.0709,45.2331Z" style="fill:#9797a4"/><path d="M132.4822,66.1551V90.4882a4.9184,4.9184,0,0,0,8.7032,3.141l19.6991-23.7367a7.3635,7.3635,0,0,0-.984-10.367q-.0941-.0779-.1906-.1524l-23.215-18.0478a5.6834,5.6834,0,0,0-7.5068.4682L125.1713,45.61H66.21L41.9457,21.3632a7.3636,7.3636,0,0,0-12.5882,5.26v31.558a7.3816,7.3816,0,0,0,1.2448,4.0851L41.9106,79.2372a7.3636,7.3636,0,0,0,6.1363,3.2785h10.8" style="fill:none;stroke:#333;stroke-linecap:round;stroke-linejoin:round;stroke-width:6px"/><circle cx="114.1084" cy="75.9383" r="9.6953" style="fill:#b5b6c1"/><path d="M58.8468,63.353V89.8793a18.4614,18.4614,0,0,0,5.4,13.0615" style="fill:none;stroke:#333;stroke-linecap:round;stroke-linejoin:round;stroke-width:6px"/><path d="M132.5349,80.1166v9.71A18.4435,18.4435,0,0,1,127.1,102.8531l-1.7532,1.7533" style="fill:none;stroke:#333;stroke-linecap:round;stroke-linejoin:round;stroke-width:6px"/><line x1="132.5349" y1="54.576" x2="132.5349" y2="51.8498" style="fill:none;stroke:#333;stroke-linecap:round;stroke-linejoin:round;stroke-width:6px"/><path d="M68.3634,68.7531a12.55,12.55,0,0,1,10.04-5.02" style="fill:none;stroke:#333;stroke-linecap:round;stroke-linejoin:round;stroke-width:6.69350737296466px"/><path d="M122.654,68.7531a12.55,12.55,0,0,0-10.04-5.02" style="fill:none;stroke:#333;stroke-linecap:round;stroke-linejoin:round;stroke-width:6.69350737296466px"/><circle cx="77.1431" cy="78.4984" r="5.1627" style="fill:#333"/><circle cx="114.4073" cy="78.4984" r="5.1627" style="fill:#333"/><path d="M123.8038,153.5335c0,10.6664-12.6564,19.3133-28.2687,19.3133S67.2664,164.2,67.2664,153.5335s12.6563-45.5779,28.2687-45.5779S123.8038,142.8671,123.8038,153.5335Z" style="fill:#86858d;stroke:#333;stroke-linecap:round;stroke-linejoin:round;stroke-width:6px"/><path d="M70.3857,119.6693l6.9065,34.542c3.5287,9.53,36.0615,7.9676,37.4857,0l6.9065-34.542" style="fill:#ddd"/><path d="M108.9052,120.153a13.37,13.37,0,0,1-13.37-13.37,13.37,13.37,0,0,1-13.37,13.37H70.3554l6.9065,34.542c3.5287,9.53,36.0615,7.9676,37.4857,0l6.9065-34.542Z" style="fill:#fff"/><line x1="82.1649" y1="119.9065" x2="85.1855" y2="158.9157" style="fill:none;stroke:#c7c7cd;stroke-miterlimit:10;stroke-width:3.4532413482666px"/><line x1="108.9053" y1="119.9065" x2="105.8181" y2="159.7744" style="fill:none;stroke:#c7c7cd;stroke-miterlimit:10;stroke-width:3.4532413482666px"/><path d="M72.5208,137.4839s7.0634,4.7131,22.8615,4.7131c17.1605,0,23.6819-4.7131,23.6819-4.7131" style="fill:none;stroke:#c7c7cd;stroke-miterlimit:10;stroke-width:3.4532413482666px"/><line x1="95.5351" y1="110.2959" x2="95.5351" y2="161.2697" style="fill:none;stroke:#c7c7cd;stroke-linecap:round;stroke-miterlimit:10;stroke-width:3.4532413482666px"/><path d="M95.7979,90.8334c-13.51,0-32.256,1.7712-36.1706,9.1875C44.7,126.452,80.211,137.5986,95.9955,121.5959h.0783c15.825,16.0436,51.4779,4.7992,36.2539-21.7774C122.7308,90.8334,109.466,90.8334,95.7979,90.8334Z" style="fill:#ccc"/><circle cx="114.8544" cy="112.7301" r="1.7136" style="fill:#333"/><circle cx="108" cy="121.298" r="1.7136" style="fill:#333"/><circle cx="116.5679" cy="121.298" r="1.7136" style="fill:#333"/><circle cx="77.1554" cy="112.7301" r="1.7136" style="fill:#333"/><circle cx="84.0097" cy="121.298" r="1.7136" style="fill:#333"/><circle cx="75.4418" cy="121.298" r="1.7136" style="fill:#333"/><path d="M96.0048,122.6518l-10.14-10.1391a6.9592,6.9592,0,1,1,9.8418-9.8419l.2982.299.2981-.299a6.9593,6.9593,0,1,1,9.8419,9.8419Z" style="fill:#333"/><path d="M72.0272,128.5144l5.2347,26.1806c3.5287,9.53,36.0615,7.9677,37.4857,0l5.294-26.4772" style="fill:none;stroke:#333;stroke-linecap:round;stroke-linejoin:round;stroke-width:6px"/><path d="M121.6581,92.9073c7.6943.887,14.31,8.9609,14.31,17.4239,0,15.3833-23.3064,25.89-39.9629,12.3206-16.6565,13.569-39.963,3.0627-39.963-12.3206,0-8.463,6.6154-16.5369,14.31-17.4239" style="fill:none;stroke:#333;stroke-linecap:round;stroke-linejoin:round;stroke-width:6px"/></svg>